<svg xmlns="http://www.w3.org/2000/svg" width="1404" height="1872">
        <script type="application/ecmascript"> <![CDATA[
            var visiblePage = 'p1';
            function goToPage(page) {
                document.getElementById(visiblePage).setAttribute('style', 'display: none');
                document.getElementById(page).setAttribute('style', 'display: inline');
                visiblePage = page;
            }
        ]]> </script>
    <g id="layer-0" style="display:inline"><g id="stroke-Ballpoint_15" style="display:inline"><polyline style="fill:none;stroke:blue;stroke-width:2.348;opacity:1.000" points="1012.817,762.746 1012.982,766.028 1012.507,771.740 1013.067,779.198 1013.716,782.004 1014.715,783.459 1014.160,783.578 " />
<polyline style="fill:none;stroke:blue;stroke-width:2.348;opacity:1.000" points="1011.232,762.255 1012.134,757.824 1013.477,756.601 1014.883,756.042 1016.764,755.785 1019.346,756.318 1022.333,758.090 1024.643,760.745 1025.437,764.865 1024.843,767.888 1023.374,769.533 1019.828,770.694 1018.314,770.960 1016.689,770.243 1018.412,769.801 1021.529,769.595 1023.762,769.879 1025.953,770.721 1027.696,772.187 1029.156,773.955 1030.083,776.272 1030.215,780.639 1029.479,784.527 1028.192,786.429 1026.000,787.618 1021.045,788.091 1017.913,787.598 1016.602,786.915 1014.881,785.153 1015.009,783.972 1015.493,783.416 1016.244,782.906 1016.244,782.906 " />
<polyline style="fill:none;stroke:blue;stroke-width:2.348;opacity:1.000" points="1034.043,775.209 1033.812,774.656 1034.199,773.974 1034.288,772.828 1035.795,771.508 1037.701,770.857 1040.234,771.017 1041.809,772.126 1043.087,773.535 1044.399,775.731 1045.215,777.285 1045.228,777.654 1044.708,777.986 1044.268,778.835 1043.626,779.102 1037.563,780.141 1034.868,780.856 1033.397,781.841 1034.335,785.351 1035.951,786.919 1038.558,787.454 1041.465,786.850 1044.370,785.052 1046.969,782.296 1047.261,781.693 1047.261,781.693 1047.261,781.693 " />
<polyline style="fill:none;stroke:blue;stroke-width:2.348;opacity:1.000" points="1049.909,757.951 1049.636,755.859 1050.089,763.148 1050.497,776.474 1051.768,782.348 1051.856,783.119 1051.628,783.153 1051.721,782.622 " />
<polyline style="fill:none;stroke:blue;stroke-width:2.348;opacity:1.000" points="1053.416,758.673 1053.738,762.319 1053.573,768.071 1053.674,770.255 1054.050,774.651 1054.830,779.746 1055.610,784.432 1055.877,784.985 1056.043,785.353 1056.043,785.353 1056.043,785.353 " />
<polyline style="fill:none;stroke:blue;stroke-width:2.348;opacity:1.000" points="1065.833,770.477 1065.927,772.895 1066.137,772.657 1068.273,781.556 1069.965,789.873 1071.605,795.400 1072.247,796.621 1071.903,795.086 1070.482,791.319 1070.086,789.566 1069.121,782.521 1068.744,777.296 1069.050,773.275 1069.474,771.933 1070.594,769.927 1072.123,769.009 1073.708,768.575 1075.340,768.646 1078.682,770.406 1079.523,771.359 1080.639,773.608 1080.987,775.901 1080.686,777.873 1078.918,780.893 1077.696,782.342 1076.647,782.995 1075.330,782.770 1073.765,781.431 1073.430,780.799 1073.498,779.082 1073.293,778.281 1073.104,777.923 1073.104,777.923 " />
<polyline style="fill:none;stroke:blue;stroke-width:2.348;opacity:1.000" points="1091.840,773.671 1088.842,771.217 1087.940,771.086 1087.369,771.095 1086.854,771.185 1086.261,771.370 1085.236,771.884 1084.092,773.963 1083.591,775.948 1084.014,778.152 1085.106,780.196 1087.913,782.323 1090.133,782.753 1090.940,782.622 1094.208,780.991 1095.907,779.489 1097.311,777.512 1098.047,774.333 1097.799,771.702 1097.392,770.984 1094.967,768.865 1092.911,768.513 1091.828,768.769 1090.898,769.434 1089.341,771.818 1089.146,775.132 1089.411,777.185 1091.725,780.820 1092.552,781.558 1093.675,781.937 1094.890,782.191 1094.890,782.191 1094.890,782.191 1094.890,782.191 " />
<polyline style="fill:none;stroke:blue;stroke-width:2.348;opacity:1.000" points="1104.185,771.935 1105.237,774.998 1106.069,776.395 1106.971,782.323 " />
<polyline style="fill:none;stroke:blue;stroke-width:2.348;opacity:1.000" points="1109.570,771.832 1111.128,774.935 1112.080,777.938 1112.476,779.516 1112.567,780.571 1112.915,780.905 1113.266,780.341 1113.047,779.850 1113.560,777.915 1114.235,770.542 1114.636,769.372 1115.077,768.451 1116.404,767.026 1117.568,766.833 1118.667,767.185 1120.642,768.565 1124.047,774.678 1124.557,777.262 1125.261,778.879 1125.468,781.489 1125.996,781.537 1126.266,781.265 1126.472,780.712 1126.472,780.712 1126.472,780.712 " />
<polyline style="fill:none;stroke:blue;stroke-width:2.348;opacity:1.000" points="1135.880,751.907 1135.948,749.416 1136.349,754.826 1136.318,758.208 1136.618,760.111 1136.829,764.686 1137.323,771.746 1137.622,773.605 1139.079,776.199 1139.846,776.892 1141.307,777.057 1141.436,776.831 1141.355,776.618 1140.973,775.832 1140.848,775.162 " />
<polyline style="fill:none;stroke:blue;stroke-width:2.348;opacity:1.000" points="1130.629,761.192 1137.685,760.085 1141.650,758.895 1144.904,757.659 1146.329,757.097 1148.473,756.369 1149.532,756.086 1150.122,756.099 1149.890,756.498 1149.890,756.498 " />
</g><g id="stroke-Fineliner_17" style="display:inline"><polyline style="fill:none;stroke:blue;stroke-width:2.348;opacity:1.000" points="984.535,965.192 983.706,964.123 983.276,964.194 983.736,965.062 983.015,970.998 982.998,973.532 984.499,990.733 984.797,991.488 985.632,991.569 " />
<polyline style="fill:none;stroke:blue;stroke-width:2.348;opacity:1.000" points="974.839,969.302 976.466,968.568 981.298,967.679 994.717,966.036 997.632,966.105 998.474,966.258 998.436,966.648 " />
<polyline style="fill:none;stroke:blue;stroke-width:2.348;opacity:1.000" points="981.660,979.657 981.882,977.061 981.404,977.388 982.278,977.808 986.264,978.105 989.595,977.534 990.357,977.931 990.383,978.259 " />
<polyline style="fill:none;stroke:blue;stroke-width:2.348;opacity:1.000" points="998.783,978.586 999.002,978.506 998.750,978.539 999.072,988.638 999.316,991.059 999.968,993.102 " />
<polyline style="fill:none;stroke:blue;stroke-width:2.348;opacity:1.000" points="1010.827,978.106 1010.430,981.814 1010.913,986.080 1011.484,987.693 1012.333,988.920 1012.899,988.007 1012.844,986.685 1014.064,980.209 1014.288,975.493 1015.254,973.787 1016.429,973.678 1017.465,974.072 1020.054,975.857 1021.448,978.414 1022.432,981.997 1022.792,988.409 1023.850,989.706 1024.424,989.721 " />
<polyline style="fill:none;stroke:blue;stroke-width:2.348;opacity:1.000" points="1032.042,978.752 1031.299,979.298 1031.585,979.770 1031.433,980.403 1032.306,980.959 1034.151,980.803 1037.913,978.763 1039.340,977.289 1040.119,975.854 1040.114,973.537 1039.627,972.871 1038.342,972.398 1035.047,973.146 1033.820,973.905 1031.813,975.976 1029.552,979.726 1028.747,982.003 1029.303,985.537 1031.146,988.138 1033.628,989.204 1036.507,989.260 1039.910,987.331 1041.953,983.832 " />
<polyline style="fill:none;stroke:blue;stroke-width:2.348;opacity:1.000" points="1047.696,959.837 1048.456,963.135 1049.157,964.621 1049.525,967.288 1049.873,972.209 1049.626,978.941 1049.961,988.346 1050.200,989.410 1051.042,990.638 1051.739,990.562 1051.954,990.133 " />
<polyline style="fill:none;stroke:blue;stroke-width:2.348;opacity:1.000" points="1058.394,976.600 1059.707,978.312 1060.428,981.014 1061.399,982.932 1062.153,987.179 1062.566,987.859 " />
<polyline style="fill:none;stroke:blue;stroke-width:2.348;opacity:1.000" points="1068.134,974.497 1068.054,975.825 1068.744,978.118 1069.001,982.890 1069.909,986.118 1069.798,983.720 1071.435,975.698 1071.947,974.527 1073.436,972.977 1074.833,972.512 1076.618,973.315 1077.852,974.481 1078.407,975.228 1079.855,979.973 1080.394,984.052 1080.308,988.412 1080.532,989.054 1080.892,988.860 1080.919,988.435 " />
<polyline style="fill:none;stroke:blue;stroke-width:2.348;opacity:1.000" points="1088.521,976.801 1088.701,978.312 1089.609,979.612 1092.762,979.089 1095.756,978.173 1098.706,976.391 1099.524,975.703 1101.092,973.425 1101.864,971.092 1101.972,969.681 1101.653,969.207 1100.172,968.438 1098.630,968.219 1096.840,968.998 1093.318,971.404 1091.165,973.429 1090.707,974.246 1090.236,977.617 1090.927,981.727 1091.905,983.574 1093.245,985.046 1097.518,986.447 1099.295,985.890 1100.135,985.199 1103.002,982.178 1103.490,981.063 " />
<polyline style="fill:none;stroke:blue;stroke-width:2.348;opacity:1.000" points="1107.594,967.478 1109.759,970.511 1110.870,973.039 1112.277,977.297 1112.567,981.490 1113.486,984.791 1113.252,981.103 1113.517,978.840 1117.056,971.434 1119.097,969.129 1122.576,966.856 1125.043,966.340 1125.616,966.744 1125.558,967.608 " />
</g><g id="stroke-Marker_16" style="display:inline"><polyline style="fill:none;stroke:blue;stroke-width:3.478;opacity:0.900" points="982.875,1136.752 982.299,1139.010 981.887,1143.115 981.373,1157.293 981.627,1161.650 982.076,1161.888 982.204,1161.634 981.935,1159.214 983.139,1153.293 983.685,1148.840 983.721,1146.495 983.721,1146.495 983.511,1141.116 983.305,1138.316 983.335,1135.563 982.963,1130.480 983.504,1130.986 983.501,1132.225 984.186,1134.421 986.466,1139.036 988.875,1145.828 990.915,1148.781 991.741,1149.422 993.176,1149.854 994.341,1149.269 995.100,1148.133 997.298,1141.757 998.443,1133.585 998.158,1131.745 997.996,1137.557 998.414,1140.576 999.984,1146.120 1001.310,1148.725 1002.529,1152.274 1004.500,1154.990 1005.024,1157.930 1004.795,1158.447 1004.795,1158.447 " />
<polyline style="fill:none;stroke:blue;stroke-width:3.478;opacity:0.900" points="1015.558,1141.616 1016.795,1139.459 1017.754,1138.634 1019.667,1138.647 1022.264,1139.746 1025.219,1142.744 1026.298,1146.038 1026.224,1148.714 1026.015,1149.703 1025.401,1150.014 1021.376,1149.402 1016.565,1149.008 1015.106,1149.179 1012.799,1150.025 1011.789,1151.074 1011.420,1152.997 1011.754,1155.410 1012.548,1157.198 1014.695,1159.617 1017.878,1160.900 1021.124,1160.642 1022.240,1160.203 1024.176,1158.695 1025.043,1157.631 1025.043,1157.631 1025.043,1157.631 " />
<polyline style="fill:none;stroke:blue;stroke-width:3.478;opacity:0.900" points="1033.097,1143.318 1032.517,1143.436 1033.632,1144.049 1035.360,1146.721 1037.676,1155.210 1038.017,1156.071 1039.029,1157.074 1039.246,1156.752 1038.920,1156.079 1040.459,1150.442 1041.843,1140.110 1042.919,1135.848 1043.529,1134.382 1044.331,1133.463 1045.338,1133.032 1046.604,1133.085 1046.992,1133.628 1047.225,1134.280 1047.225,1134.280 1047.225,1134.280 " />
<polyline style="fill:none;stroke:blue;stroke-width:3.478;opacity:0.900" points="1063.127,1119.915 1062.631,1120.775 1061.852,1127.239 1060.610,1134.987 1059.883,1143.471 1059.980,1150.562 1060.819,1153.463 1061.322,1154.098 1061.776,1154.182 1061.953,1153.902 1061.424,1151.123 1062.155,1143.589 1063.138,1140.290 1064.812,1136.338 1065.682,1134.469 1068.966,1130.409 1071.946,1127.877 1073.455,1127.391 1073.604,1127.610 1073.273,1127.875 1072.954,1128.226 1072.954,1128.226 1072.954,1128.226 " />
<polyline style="fill:none;stroke:blue;stroke-width:3.478;opacity:0.900" points="1063.310,1140.915 1065.114,1142.310 1068.701,1147.069 1069.504,1148.546 1070.058,1150.101 1070.569,1151.698 1071.199,1153.848 1071.629,1154.377 1072.916,1155.204 1073.296,1155.066 1073.715,1154.639 1074.237,1154.029 1074.237,1154.029 1074.237,1154.029 " />
<polyline style="fill:none;stroke:blue;stroke-width:3.478;opacity:0.900" points="1083.513,1143.931 1086.389,1143.621 1091.155,1141.987 1096.954,1138.538 1097.584,1135.745 1096.756,1134.181 1095.658,1132.859 1093.829,1131.878 1091.103,1131.739 1089.816,1132.044 1085.347,1135.435 1083.749,1137.527 1083.181,1138.918 1082.039,1143.531 1081.740,1148.066 1082.239,1151.312 1083.454,1154.148 1085.080,1156.047 1087.177,1157.331 1090.229,1157.313 1093.165,1156.573 1094.526,1155.780 1095.232,1154.780 1096.246,1153.736 1097.309,1152.567 1097.309,1152.567 1097.309,1152.567 " />
<polyline style="fill:none;stroke:blue;stroke-width:3.478;opacity:0.900" points="1102.469,1135.805 1104.196,1136.846 1105.064,1138.162 1106.727,1142.365 1107.965,1148.168 1108.574,1153.045 1109.528,1155.485 1108.693,1153.168 1108.583,1152.195 1108.790,1148.388 1109.456,1144.562 1111.615,1138.540 1113.964,1135.818 1115.144,1134.861 1116.794,1134.118 1121.930,1132.041 1124.630,1131.708 1125.903,1131.980 1125.913,1132.321 " />
</g><g id="stroke-SharpPencil_13" style="display:inline"><polyline style="fill:none;stroke:blue;stroke-width:2.174;opacity:0.900" points="912.968,1474.262 912.532,1481.749 912.524,1490.905 913.019,1496.124 913.655,1497.850 914.008,1497.714 914.240,1495.777 915.036,1494.388 915.952,1488.329 915.120,1468.735 915.827,1466.996 916.143,1469.230 918.182,1473.366 921.113,1480.920 923.388,1484.860 925.231,1486.042 926.268,1485.616 925.840,1485.002 928.046,1480.046 929.189,1475.980 929.885,1471.342 930.852,1469.124 930.338,1470.208 930.643,1470.480 931.407,1475.682 932.338,1489.600 933.355,1493.333 934.153,1493.756 934.937,1493.505 935.347,1493.160 935.633,1492.848 " />
<polyline style="fill:none;stroke:blue;stroke-width:2.174;opacity:0.900" points="940.412,1484.887 942.321,1485.267 943.033,1485.111 945.239,1483.628 947.435,1481.284 948.671,1478.820 949.364,1476.189 948.289,1474.686 947.576,1474.581 946.163,1475.128 942.863,1477.333 939.622,1481.813 938.320,1485.120 938.325,1487.519 938.748,1489.809 940.196,1492.899 941.242,1493.796 943.528,1494.920 945.598,1495.159 948.463,1494.172 949.922,1492.636 951.495,1490.507 952.278,1489.178 952.278,1489.178 " />
<polyline style="fill:none;stroke:blue;stroke-width:2.174;opacity:0.900" points="963.104,1475.331 963.434,1474.270 961.121,1474.702 958.259,1476.637 956.657,1478.308 955.293,1480.197 954.498,1482.310 954.517,1484.053 955.081,1485.814 956.694,1488.591 958.705,1489.999 961.544,1490.180 964.310,1488.873 966.661,1485.887 966.984,1485.087 966.984,1485.087 966.984,1485.087 " />
<polyline style="fill:none;stroke:blue;stroke-width:2.174;opacity:0.900" points="973.988,1462.387 972.993,1461.671 972.573,1461.718 973.110,1461.920 973.842,1468.564 974.160,1482.082 974.481,1485.550 975.150,1488.049 975.611,1488.094 975.909,1487.738 975.613,1485.772 975.688,1483.035 976.501,1476.193 976.935,1475.242 977.936,1474.284 978.592,1474.379 980.006,1475.254 982.615,1477.928 984.513,1481.797 986.181,1486.463 986.523,1489.318 986.463,1490.635 986.313,1490.194 986.381,1489.923 986.381,1489.923 986.381,1489.923 " />
<polyline style="fill:none;stroke:blue;stroke-width:2.174;opacity:0.900" points="994.836,1473.191 995.894,1472.652 998.649,1473.086 999.416,1473.536 1000.683,1474.688 1002.187,1476.835 1002.690,1478.649 1002.548,1479.476 1001.496,1479.690 999.522,1479.401 993.981,1479.452 992.593,1479.596 990.064,1480.694 989.750,1481.545 990.512,1483.791 991.932,1485.732 994.966,1487.158 997.387,1487.190 999.471,1486.807 1001.713,1485.540 1003.045,1484.164 1004.046,1482.556 1004.417,1481.800 1004.417,1481.800 1004.417,1481.800 " />
<polyline style="fill:none;stroke:blue;stroke-width:2.174;opacity:0.900" points="1009.217,1472.388 1009.620,1472.689 1009.900,1473.702 1010.789,1478.361 1010.499,1484.475 1011.138,1484.911 1010.586,1482.624 1012.954,1474.445 1014.391,1472.076 1015.314,1471.460 1016.708,1471.553 1018.977,1474.198 1022.036,1480.095 1023.367,1484.443 1024.172,1490.282 1024.699,1491.025 1024.651,1490.937 1024.811,1490.616 1025.097,1490.044 1025.097,1490.044 1025.097,1490.044 " />
<polyline style="fill:none;stroke:blue;stroke-width:2.174;opacity:0.900" points="1038.966,1472.690 1039.675,1475.116 1039.574,1477.731 1040.016,1478.825 1040.433,1481.394 1041.069,1484.654 1041.520,1485.972 1041.872,1486.283 1042.145,1486.073 1042.145,1486.073 1042.145,1486.073 " />
<polyline style="fill:none;stroke:blue;stroke-width:2.174;opacity:0.900" points="1056.162,1470.170 1055.743,1471.539 1054.538,1473.289 1052.999,1473.949 1052.323,1474.623 1051.652,1476.962 1051.786,1477.778 1054.198,1484.121 1054.675,1485.721 1055.533,1486.782 1056.237,1486.929 1057.645,1486.517 1058.473,1486.016 1059.318,1485.413 1059.318,1485.413 1059.318,1485.413 " />
<polyline style="fill:none;stroke:blue;stroke-width:2.174;opacity:0.900" points="1066.038,1472.816 1067.065,1471.637 1068.987,1471.222 1071.424,1471.776 1072.644,1472.485 1073.299,1473.224 1073.458,1474.281 1072.262,1477.123 1066.763,1479.811 1064.109,1481.473 1063.126,1482.554 1063.177,1483.597 1063.543,1484.161 1066.034,1486.851 1067.599,1487.420 1069.750,1487.366 1071.898,1486.151 1075.198,1482.901 1076.932,1479.918 1078.061,1478.355 1078.061,1478.355 " />
<polyline style="fill:none;stroke:blue;stroke-width:2.174;opacity:0.900" points="1079.118,1459.229 1080.931,1465.801 1082.079,1471.768 1082.461,1474.174 1083.384,1482.253 1083.704,1492.084 1085.133,1494.606 " />
<polyline style="fill:none;stroke:blue;stroke-width:2.174;opacity:0.900" points="1120.313,1465.066 1120.278,1467.589 1120.472,1467.569 1120.774,1477.780 1121.346,1483.337 1121.528,1492.876 1121.596,1493.534 1121.903,1493.939 1122.016,1494.237 1122.016,1494.237 1122.016,1494.237 " />
<polyline style="fill:none;stroke:blue;stroke-width:2.174;opacity:0.900" points="1117.541,1463.895 1120.160,1462.071 1122.549,1461.162 1126.858,1461.566 1127.925,1462.001 1130.121,1464.758 1130.877,1469.482 1129.481,1474.351 1126.490,1478.510 1125.509,1479.270 1124.205,1479.697 1121.238,1479.290 1119.543,1478.231 1118.588,1477.047 1118.500,1476.470 1118.500,1476.470 " />
<polyline style="fill:none;stroke:blue;stroke-width:2.174;opacity:0.900" points="1132.061,1479.619 1131.680,1477.191 1132.103,1478.109 1133.774,1477.861 1134.785,1477.115 1138.458,1473.229 1139.608,1470.961 1139.948,1469.807 1139.728,1469.175 1138.531,1468.618 1137.145,1469.213 1134.472,1471.684 1132.899,1474.551 1131.911,1478.543 1132.072,1482.568 1132.704,1485.115 1133.290,1486.079 1134.601,1487.526 1136.094,1488.107 1139.378,1487.050 1140.093,1486.438 1142.275,1483.120 1145.187,1477.906 1146.603,1473.568 1147.231,1467.340 1146.619,1469.756 1146.322,1474.945 1146.669,1478.202 1148.073,1484.483 1149.700,1486.592 1150.809,1486.793 1151.918,1486.383 1154.940,1480.375 1157.025,1474.579 1157.491,1474.302 1157.166,1474.997 1157.839,1476.629 1158.672,1481.644 1161.670,1491.250 1162.438,1492.465 1163.386,1492.340 1162.407,1493.547 " />
<polyline style="fill:none;stroke:blue;stroke-width:2.174;opacity:0.900" points="1177.791,1470.423 1176.299,1470.314 1174.782,1470.686 1172.343,1471.838 1171.180,1472.292 1169.196,1473.584 1167.543,1475.563 1166.549,1478.068 1166.877,1481.287 1167.320,1482.305 1169.053,1485.081 1170.666,1486.421 1172.704,1486.991 1173.861,1486.853 1175.286,1486.543 1176.584,1485.922 1177.872,1485.031 1177.872,1485.031 1177.872,1485.031 " />
<polyline style="fill:none;stroke:blue;stroke-width:2.174;opacity:0.900" points="1185.267,1474.672 1184.970,1476.132 1185.166,1477.946 1184.714,1479.062 1185.396,1484.430 1185.959,1487.284 1185.941,1488.512 1186.210,1489.570 1186.846,1490.292 1187.441,1490.485 1187.949,1490.390 1187.949,1490.390 " />
<polyline style="fill:none;stroke:blue;stroke-width:2.174;opacity:0.900" points="1196.230,1457.993 1196.899,1459.301 1198.037,1466.248 1199.464,1476.356 1200.629,1488.088 1201.707,1492.474 " />
</g><g id="stroke-TiltPencil_14" style="display:inline"><polyline style="fill:none;stroke:blue;stroke-width:2.174;opacity:0.900" points="940.859,1283.384 940.983,1285.692 939.939,1283.960 940.085,1284.119 940.087,1284.223 940.222,1284.358 940.347,1284.743 940.129,1286.519 940.395,1290.567 940.611,1298.338 942.138,1313.272 942.941,1319.309 944.065,1322.292 943.783,1320.909 942.269,1318.625 941.924,1317.243 941.924,1317.243 " />
<polyline style="fill:none;stroke:blue;stroke-width:2.174;opacity:0.900" points="930.242,1289.797 930.750,1288.856 931.658,1287.145 932.277,1285.877 932.860,1284.820 933.721,1283.909 937.184,1281.267 940.395,1279.606 943.211,1278.926 945.735,1279.357 946.598,1279.895 949.154,1281.844 950.692,1282.903 952.094,1284.063 953.652,1285.439 954.757,1286.973 957.004,1293.486 957.950,1298.304 958.409,1303.955 957.261,1306.864 954.595,1309.531 953.190,1310.005 949.599,1310.479 945.668,1310.291 942.673,1309.373 940.363,1308.007 938.312,1305.562 938.065,1305.046 938.270,1304.741 938.550,1304.692 938.550,1304.692 938.550,1304.692 " />
<polyline style="fill:none;stroke:blue;stroke-width:2.174;opacity:0.900" points="967.700,1307.490 966.180,1307.600 965.948,1307.688 966.382,1307.813 966.314,1307.923 966.537,1307.904 967.074,1308.043 968.680,1308.504 969.788,1308.613 971.829,1308.563 974.163,1308.034 978.192,1306.157 980.714,1303.715 981.718,1301.812 981.040,1301.249 980.892,1300.682 981.175,1299.900 980.274,1298.419 978.953,1297.175 975.992,1296.049 974.082,1296.639 971.788,1298.515 970.451,1300.335 968.531,1304.722 967.160,1309.928 966.843,1314.347 966.952,1315.642 967.696,1317.771 968.950,1319.739 970.529,1321.451 974.147,1322.639 977.064,1322.804 980.045,1322.259 983.090,1320.923 986.256,1318.707 987.463,1317.216 989.816,1312.599 990.940,1308.863 991.875,1303.247 991.963,1299.323 991.540,1297.115 991.152,1297.085 990.931,1297.595 991.152,1298.784 990.563,1301.322 990.596,1304.050 991.942,1311.083 992.995,1314.520 994.228,1315.960 995.459,1316.469 996.842,1315.925 998.355,1314.473 1001.343,1309.076 1004.504,1301.663 1005.182,1297.895 1005.827,1296.255 1006.101,1296.475 1005.681,1298.391 1006.040,1307.205 1007.344,1312.382 1008.912,1316.814 1010.869,1319.497 1012.723,1320.488 1013.869,1320.191 1014.993,1319.466 1015.906,1317.510 1016.235,1315.146 1016.061,1314.707 1015.415,1314.789 " />
<polyline style="fill:none;stroke:blue;stroke-width:2.174;opacity:0.900" points="1033.547,1298.738 1033.433,1299.703 1032.957,1300.485 1032.286,1299.534 1031.675,1299.271 1028.790,1299.345 1026.386,1300.203 1023.424,1302.011 1021.814,1303.117 1020.312,1304.407 1017.788,1306.818 1016.965,1307.920 1015.737,1310.937 1017.052,1315.388 1018.050,1317.500 1020.400,1319.098 1024.838,1320.413 1029.286,1320.381 1031.585,1319.532 1033.926,1318.128 1036.018,1315.992 1036.910,1314.784 1036.910,1314.784 " />
<polyline style="fill:none;stroke:blue;stroke-width:2.174;opacity:0.900" points="1042.837,1298.560 1042.101,1298.477 1042.144,1298.741 1042.639,1298.861 1042.639,1299.108 1042.795,1300.738 1042.849,1303.921 1043.059,1305.389 1044.269,1309.579 1046.812,1315.145 1047.867,1316.466 1048.336,1316.363 1049.044,1315.362 1049.424,1314.598 1049.894,1313.396 1049.894,1313.396 1049.894,1313.396 1049.894,1313.396 " />
<polyline style="fill:none;stroke:blue;stroke-width:2.174;opacity:0.900" points="1058.839,1274.367 1059.126,1270.266 1058.508,1270.784 1058.415,1271.970 1059.056,1272.376 1059.175,1273.318 1058.985,1276.192 1059.134,1280.604 1059.350,1283.452 1060.047,1289.099 1061.157,1295.283 1062.627,1305.298 1062.640,1308.347 1063.032,1311.051 1064.391,1316.852 1064.335,1318.559 1064.693,1318.475 1064.681,1318.356 1064.519,1317.984 1064.543,1317.847 1064.281,1317.056 " />
</g><g id="stroke-Brush_12" style="display:inline"><polyline style="fill:none;stroke:blue;stroke-width:0.870;opacity:1.000" points="960.430,1598.090 959.386,1594.536 959.523,1594.857 959.627,1595.566 959.905,1596.400 959.844,1596.745 959.750,1600.051 959.354,1605.345 959.564,1608.445 960.134,1614.669 960.969,1620.342 961.362,1626.400 961.629,1628.701 962.368,1632.132 962.751,1633.247 963.123,1633.834 963.277,1633.746 963.373,1633.225 963.373,1633.225 963.373,1633.225 963.373,1633.225 " />
<polyline style="fill:none;stroke:blue;stroke-width:0.870;opacity:1.000" points="951.997,1599.982 951.875,1598.003 952.011,1597.223 951.890,1596.580 953.542,1594.301 954.398,1593.637 959.576,1591.826 963.106,1591.938 966.600,1593.098 969.959,1595.260 972.814,1598.391 974.909,1601.940 975.566,1603.721 976.449,1607.603 976.591,1609.312 976.240,1611.716 975.876,1612.713 974.217,1614.386 972.896,1615.241 969.467,1616.348 967.338,1616.659 963.487,1616.591 961.696,1616.429 958.992,1615.662 957.897,1615.196 956.828,1614.286 956.095,1613.698 956.408,1613.659 956.807,1613.889 956.807,1613.889 956.807,1613.889 956.807,1613.889 " />
<polyline style="fill:none;stroke:blue;stroke-width:0.870;opacity:1.000" points="984.734,1615.051 985.319,1612.456 986.583,1612.084 988.111,1611.970 990.900,1612.080 992.485,1612.329 993.432,1612.760 996.246,1614.643 996.668,1615.246 996.540,1616.036 995.780,1616.842 995.179,1617.248 993.581,1618.195 991.431,1619.429 990.172,1620.092 988.780,1620.663 986.561,1621.724 985.653,1622.120 984.880,1622.618 984.266,1623.307 983.914,1623.827 983.789,1625.100 984.499,1627.149 985.601,1628.384 987.183,1629.380 989.787,1629.785 992.143,1629.604 993.191,1629.382 996.114,1627.593 999.081,1624.244 1000.487,1620.442 1000.478,1620.048 1000.084,1619.602 1000.172,1619.579 1000.172,1619.579 1000.172,1619.579 " />
<polyline style="fill:none;stroke:blue;stroke-width:0.870;opacity:1.000" points="1004.874,1614.953 1005.426,1614.036 1005.177,1614.452 1005.171,1615.549 1005.968,1619.864 1007.551,1624.759 1008.885,1627.352 1009.384,1628.999 1010.407,1630.241 1010.744,1630.302 " />
<polyline style="fill:none;stroke:blue;stroke-width:0.870;opacity:1.000" points="1020.298,1614.430 1020.250,1614.688 1020.493,1615.296 1020.727,1616.275 1020.341,1621.582 1020.344,1626.670 1020.992,1628.950 1021.358,1629.043 1021.645,1628.665 1020.946,1627.316 1021.148,1621.262 1022.549,1613.419 1023.435,1611.413 1024.242,1610.805 1026.171,1610.366 1027.840,1610.724 1032.046,1613.270 1035.833,1617.705 1037.047,1619.829 1038.311,1623.983 1038.656,1626.517 1038.629,1627.494 1038.422,1629.309 1038.598,1629.904 1038.490,1630.152 1038.294,1629.970 1038.214,1628.563 " />
<polyline style="fill:none;stroke:blue;stroke-width:0.870;opacity:1.000" points="1049.189,1594.854 1048.882,1595.255 1049.001,1595.558 1048.711,1598.099 1048.698,1602.607 1048.946,1605.250 1049.677,1618.166 1050.316,1624.628 1051.256,1630.130 1052.607,1634.071 1053.400,1635.965 1053.848,1636.596 1053.471,1635.439 1053.481,1634.334 1053.481,1634.334 1053.481,1634.334 " />
<polyline style="fill:none;stroke:blue;stroke-width:0.870;opacity:1.000" points="1041.637,1614.102 1041.849,1611.674 1042.212,1611.517 1042.137,1612.168 1042.507,1612.315 1044.220,1611.824 1047.279,1610.910 1050.729,1609.460 1053.935,1608.376 1057.279,1607.533 1058.736,1607.246 1061.426,1606.684 1062.689,1606.472 1063.544,1606.243 1064.095,1606.017 1064.546,1605.772 1064.686,1605.707 1064.772,1605.671 1065.031,1605.625 1065.601,1605.001 " />
<polyline style="fill:none;stroke:blue;stroke-width:0.870;opacity:1.000" points="1075.821,1594.525 1074.879,1593.086 1075.029,1593.057 1075.048,1593.196 1075.293,1593.846 1075.629,1594.355 1075.786,1595.667 1076.599,1604.338 1076.785,1613.940 1077.135,1619.370 1077.221,1621.666 1077.626,1623.664 1077.931,1626.126 1078.093,1626.646 1078.264,1626.735 1078.167,1625.814 1077.589,1624.296 1076.956,1621.804 1076.503,1617.980 1076.649,1614.334 1077.953,1611.318 1079.850,1609.856 1080.683,1609.740 1083.118,1610.243 1086.105,1611.468 1090.922,1614.237 1092.321,1615.259 1093.347,1616.481 1094.656,1619.200 1094.913,1620.704 1094.195,1624.203 1092.025,1628.137 1090.151,1630.193 1088.268,1631.093 1086.060,1630.852 1082.399,1629.298 1079.898,1625.996 1078.554,1623.081 1078.250,1621.541 1078.250,1621.541 1078.250,1621.541 1078.250,1621.541 " />
<polyline style="fill:none;stroke:blue;stroke-width:0.870;opacity:1.000" points="1096.471,1607.734 1097.484,1608.919 1098.956,1610.825 1100.388,1613.697 1101.811,1619.193 1102.594,1625.229 1103.136,1627.397 1103.529,1627.758 1103.106,1626.281 1102.989,1625.634 1101.771,1623.423 1100.955,1619.979 1100.728,1617.979 1100.407,1614.190 1100.405,1612.194 1101.200,1608.803 1102.880,1606.657 1105.199,1605.157 1107.839,1604.052 1109.169,1603.670 1111.693,1603.546 1113.082,1603.672 1114.238,1604.217 1114.238,1604.217 1114.238,1604.217 " />
<polyline style="fill:none;stroke:blue;stroke-width:0.870;opacity:1.000" points="1122.167,1613.180 1122.116,1613.299 1122.221,1613.290 1122.347,1613.382 1122.369,1613.637 1122.250,1614.234 1121.659,1616.150 1121.254,1619.638 1121.289,1624.775 1121.786,1626.182 1123.034,1628.328 1123.839,1629.009 1125.839,1629.768 1129.135,1630.012 1131.423,1628.879 1133.898,1627.048 1134.998,1625.710 1137.011,1621.148 1138.211,1617.910 1138.788,1614.989 1138.886,1611.974 1138.758,1610.280 1137.065,1605.603 1136.204,1604.567 1134.868,1603.724 1133.818,1603.290 1133.131,1603.355 1133.131,1603.355 1133.131,1603.355 " />
<polyline style="fill:none;stroke:blue;stroke-width:0.870;opacity:1.000" points="1159.600,1604.665 1159.902,1603.078 1159.676,1603.496 1159.533,1603.593 1159.626,1604.151 1158.892,1604.683 1158.102,1605.397 1157.156,1606.398 1156.233,1607.419 1154.440,1609.425 1153.394,1610.895 1151.906,1612.309 1148.474,1614.982 1147.262,1616.132 1146.421,1617.605 1145.979,1617.871 1149.389,1615.972 1152.787,1614.960 1154.309,1614.934 1156.472,1615.474 1159.806,1617.351 1160.929,1618.305 1162.176,1622.300 1161.622,1628.272 1161.331,1629.351 1160.135,1631.872 1159.597,1632.466 1157.612,1633.351 1156.062,1633.106 1152.335,1630.719 1150.273,1629.084 1149.366,1628.103 1148.816,1627.021 1148.450,1625.906 1148.450,1625.906 1148.450,1625.906 " />
<polyline style="fill:none;stroke:blue;stroke-width:0.870;opacity:1.000" points="1166.919,1589.342 1166.543,1589.074 1166.547,1589.287 1166.795,1589.441 1166.873,1590.160 1167.711,1592.634 1170.067,1598.284 1171.522,1603.232 1172.614,1608.847 1173.080,1611.986 1173.231,1618.166 1173.599,1620.911 1173.620,1627.085 1173.753,1628.727 1173.964,1628.884 1174.093,1628.629 1174.236,1625.868 1175.020,1622.298 1177.379,1616.364 1178.108,1615.793 1180.333,1614.969 1182.783,1614.833 1184.046,1615.060 1186.748,1616.234 1190.170,1618.970 1192.510,1621.691 1195.216,1626.608 1198.421,1630.405 1200.028,1631.885 1200.565,1632.147 1201.667,1632.053 1204.237,1629.509 " />
</g><g id="stroke-Highlighter_18" style="display:inline"><polyline style="fill:none;stroke:yellow;stroke-width:13.043;opacity:0.600" points="398.711,219.448 397.505,219.448 396.950,219.214 397.049,218.941 397.351,219.117 402.107,218.227 413.671,219.496 429.887,218.205 436.485,218.153 439.294,218.682 442.989,220.202 447.929,221.059 452.547,221.282 457.583,221.947 463.197,223.407 471.015,224.445 475.554,225.374 482.874,225.307 489.427,226.808 493.044,226.614 499.663,225.654 506.350,226.349 511.805,225.413 515.569,223.885 519.271,222.903 522.852,223.079 527.345,222.246 539.476,222.200 544.026,221.396 550.007,221.112 552.455,221.317 556.547,222.285 560.921,222.701 576.883,221.004 587.007,222.846 601.543,222.302 609.919,222.511 619.534,223.245 638.652,223.348 642.214,223.695 658.278,224.026 670.624,222.667 683.932,220.160 695.935,219.246 697.905,219.294 712.051,221.361 723.087,220.040 734.708,220.382 749.905,218.416 753.729,218.461 754.502,218.770 754.353,219.019 756.158,219.336 758.587,218.826 759.618,218.297 759.221,218.205 759.445,218.415 " />
<polyline style="fill:none;stroke:yellow;stroke-width:13.043;opacity:0.600" points="775.482,454.876 777.235,453.962 783.129,451.902 785.152,451.949 789.680,453.164 792.744,453.358 800.609,453.136 806.485,454.111 812.612,453.608 823.453,453.754 834.119,452.975 837.679,453.193 840.910,453.896 846.790,453.916 854.735,452.569 868.615,452.487 875.747,451.440 878.417,451.708 880.310,452.451 889.824,452.674 900.184,451.178 904.598,451.346 908.775,451.089 913.493,450.092 919.080,449.398 922.258,449.579 926.522,450.448 928.556,450.396 933.556,449.809 938.829,448.323 942.061,448.066 949.833,448.803 959.897,449.078 969.532,450.041 981.412,449.864 992.808,451.030 999.033,450.605 1007.970,451.240 1007.424,451.257 1009.738,450.415 1011.150,450.163 1010.325,449.967 " />
<polyline style="fill:none;stroke:yellow;stroke-width:13.043;opacity:0.600" points="208.201,487.040 207.332,487.047 208.177,487.424 210.430,487.717 213.687,488.666 218.298,489.357 222.988,489.585 231.575,489.372 243.087,487.238 246.079,487.136 250.945,487.802 255.961,487.378 264.287,487.564 268.922,488.717 275.265,489.421 280.333,489.127 283.442,488.612 287.177,488.703 291.185,489.522 298.060,490.291 308.407,488.886 317.467,489.108 327.217,488.170 334.415,488.917 348.630,488.115 364.398,488.349 376.257,487.261 384.507,485.717 393.179,484.718 407.690,480.438 413.341,479.186 418.802,479.120 422.118,479.771 425.359,479.878 433.810,478.391 442.663,478.668 445.064,479.331 451.460,480.108 459.906,479.335 461.467,479.756 465.168,479.957 472.671,479.520 477.814,480.057 487.085,481.610 499.481,481.699 506.475,482.628 511.966,482.475 523.142,481.536 533.217,481.504 541.723,481.031 546.176,481.472 557.233,481.062 578.052,478.427 585.616,480.165 594.386,480.598 597.214,481.018 601.608,482.651 605.102,483.331 610.749,483.071 615.542,483.906 620.786,484.198 624.616,484.799 628.971,484.565 631.302,485.194 633.414,484.818 636.543,485.342 636.929,484.412 " />
<polyline style="fill:none;stroke:yellow;stroke-width:13.043;opacity:0.600" points="424.390,695.824 424.931,693.757 424.612,694.019 425.032,695.630 424.150,713.924 424.342,722.763 427.614,747.894 428.815,760.212 431.377,791.596 431.539,805.416 432.992,822.741 433.409,837.291 432.523,853.194 432.784,863.252 433.187,865.905 435.342,871.112 438.434,874.162 442.520,876.961 445.659,877.966 459.268,879.241 464.899,879.394 473.357,878.376 485.472,875.802 491.269,875.383 507.392,875.760 510.881,875.565 537.860,872.558 552.915,872.643 575.984,874.639 592.322,874.877 599.516,874.410 619.053,872.185 638.360,872.044 651.909,872.629 661.511,872.615 681.785,870.446 691.695,870.286 700.201,869.439 703.645,868.604 704.913,867.911 704.714,868.041 704.407,867.670 704.160,865.799 704.251,861.286 705.437,857.006 705.637,850.856 708.419,834.374 708.686,820.779 709.293,814.722 708.741,808.945 708.513,794.141 707.920,781.841 707.026,772.198 706.643,761.971 707.133,758.371 707.032,754.703 706.180,751.254 705.058,733.583 705.229,718.432 704.794,711.603 705.183,705.607 704.702,698.042 703.898,693.940 702.089,691.532 701.802,690.089 700.975,689.161 699.993,688.882 699.768,688.349 700.632,687.809 700.423,685.851 698.336,684.085 695.202,683.013 691.599,682.488 689.163,681.474 686.067,680.701 681.729,680.095 658.324,678.136 643.086,677.605 632.577,677.622 624.748,677.180 599.075,673.528 587.521,672.887 580.219,672.847 567.220,673.453 536.706,676.114 510.582,676.925 484.851,678.700 440.486,683.596 422.660,684.245 422.477,683.970 424.321,682.846 " />
</g></g><rect x="0" y="0" width="1404" height="1872" fill-opacity="0"/></svg>